<svg width="18" height="17" viewBox="0 0 18 17" fill="none" xmlns="http://www.w3.org/2000/svg">
<path d="M3.8324 16.3672L3.83228 16.3667L8.76991 13.8287L8.99843 13.7113L9.22698 13.8287L14.1666 16.3666C14.1667 16.3666 14.1668 16.3667 14.1669 16.3667C14.1854 16.3762 14.1966 16.3761 14.2038 16.3752C14.2134 16.374 14.2276 16.3693 14.243 16.3571C14.2732 16.3332 14.2956 16.2914 14.2852 16.2321L14.2851 16.2319L13.3514 10.9106L13.3051 10.6469L13.4989 10.4622L17.4612 6.68671L17.4614 6.68646C17.4956 6.65393 17.5099 6.60576 17.4935 6.55046C17.4855 6.52365 17.4723 6.5047 17.4604 6.4937C17.4505 6.48453 17.4387 6.47781 17.4192 6.47507L17.4185 6.47497L11.9083 5.69196L11.6499 5.65524L11.5322 5.42223L9.07532 0.554499L3.8324 16.3672ZM3.8324 16.3672C3.81452 16.3761 3.80359 16.3761 3.79652 16.3752C3.78692 16.374 3.77271 16.3693 3.7573 16.3571C3.72714 16.3332 3.70473 16.2914 3.71516 16.2321L3.71521 16.2319L4.64896 10.9106L4.69524 10.6469L4.50135 10.4622L0.538322 6.68698C0.538288 6.68695 0.538254 6.68692 0.53822 6.68689C0.504482 6.65462 0.490064 6.6064 0.506643 6.55075C0.514669 6.52381 0.527965 6.50478 0.539906 6.49373C0.549851 6.48453 0.561618 6.47781 0.581096 6.47507L0.581828 6.47496L6.09208 5.69196L6.35049 5.65524L6.4681 5.42223L8.92503 0.554499L3.8324 16.3672ZM8.96243 0.510309C8.95282 0.516111 8.93856 0.527773 8.9251 0.554359L8.96243 0.510309ZM8.96243 0.510309C8.97343 0.50367 8.98639 0.5 9.00017 0.5M8.96243 0.510309L9.00017 0.5M9.00017 0.5C9.01395 0.5 9.02692 0.50367 9.03791 0.510309M9.00017 0.5L9.03791 0.510309M9.03791 0.510309C9.04752 0.516111 9.06179 0.527773 9.07525 0.554359L9.03791 0.510309Z" stroke="#8B8B8B"/>
</svg>
