<svg width="18" height="18" viewBox="0 0 18 18" fill="none" xmlns="http://www.w3.org/2000/svg">
<g clip-path="url(#clip0_47_59)">
<path fill-rule="evenodd" clip-rule="evenodd" d="M9 0.75C4.44375 0.75 0.75 4.44375 0.75 9C0.75 13.5562 4.44375 17.25 9 17.25C13.5562 17.25 17.25 13.5562 17.25 9C17.25 4.44375 13.5562 0.75 9 0.75ZM11.7802 7.28025C11.9169 7.1388 11.9925 6.94935 11.9908 6.7527C11.989 6.55605 11.9102 6.36794 11.7711 6.22889C11.6321 6.08983 11.4439 6.01095 11.2473 6.00924C11.0507 6.00754 10.8612 6.08313 10.7198 6.21975L9 7.9395L7.28025 6.21975C7.21106 6.14812 7.12831 6.09098 7.0368 6.05167C6.9453 6.01237 6.84689 5.99168 6.7473 5.99081C6.64772 5.98995 6.54896 6.00892 6.45678 6.04663C6.36461 6.08434 6.28087 6.14003 6.21045 6.21045C6.14003 6.28087 6.08434 6.36461 6.04663 6.45678C6.00892 6.54896 5.98995 6.64772 5.99081 6.7473C5.99168 6.84689 6.01237 6.9453 6.05167 7.0368C6.09098 7.12831 6.14812 7.21106 6.21975 7.28025L7.9395 9L6.21975 10.7198C6.14812 10.7889 6.09098 10.8717 6.05167 10.9632C6.01237 11.0547 5.99168 11.1531 5.99081 11.2527C5.98995 11.3523 6.00892 11.451 6.04663 11.5432C6.08434 11.6354 6.14003 11.7191 6.21045 11.7895C6.28087 11.86 6.36461 11.9157 6.45678 11.9534C6.54896 11.9911 6.64772 12.0101 6.7473 12.0092C6.84689 12.0083 6.9453 11.9876 7.0368 11.9483C7.12831 11.909 7.21106 11.8519 7.28025 11.7802L9 10.0605L10.7198 11.7802C10.8612 11.9169 11.0507 11.9925 11.2473 11.9908C11.4439 11.989 11.6321 11.9102 11.7711 11.7711C11.9102 11.6321 11.989 11.4439 11.9908 11.2473C11.9925 11.0507 11.9169 10.8612 11.7802 10.7198L10.0605 9L11.7802 7.28025Z" fill="#D9D9D9"/>
</g>
<defs>
<clipPath id="clip0_47_59">
<rect width="18" height="18" fill="white"/>
</clipPath>
</defs>
</svg>
