<svg width="32" height="42" viewBox="0 0 32 42" fill="none" xmlns="http://www.w3.org/2000/svg">
<g opacity="0.6">
<path d="M13.3334 26.6667V18.6667H18.6667V26.6667H25.3334V16H29.3334L16 4L2.66669 16H6.66669V26.6667H13.3334Z" fill="#FFFEFE"/>
<path d="M17.7431 35.408C17.7431 34.808 17.0391 34.408 15.5031 34.408C13.9671 34.408 13.2551 34.808 13.2551 35.408C13.2551 35.92 13.8151 36.296 15.0151 36.376V36.624H12.2791V37.36H18.7191V36.624H15.9511V36.384C17.1751 36.304 17.7431 35.928 17.7431 35.408ZM17.8951 39.592V37.656H13.1031V39.592H17.8951ZM18.3191 34.24V33.536H12.6791V34.24H18.3191ZM14.2471 33.272H16.7511V32.576H14.2471V33.272ZM16.9591 38.928H14.0391V38.344H16.9591V38.928ZM16.7911 35.408C16.7911 35.616 16.3991 35.752 15.5031 35.752C14.6071 35.752 14.2151 35.616 14.2151 35.408C14.2151 35.192 14.6071 35.056 15.5031 35.056C16.3991 35.056 16.7911 35.192 16.7911 35.408Z" fill="#FFFEFE"/>
</g>
</svg>
