<svg width="390" height="844" viewBox="0 0 390 844" fill="none" xmlns="http://www.w3.org/2000/svg">
<rect x="-1" y="-4" width="391" height="868" fill="url(#paint0_linear_643_260)"/>
<path d="M196.918 472C195.112 468.508 193.704 464.678 192.732 460.619C192.262 458.651 191.9 456.659 191.646 454.652C191.396 452.669 191.252 450.675 191.214 448.677C191.185 447.407 191.202 446.106 191.263 444.809C191.322 443.559 191.425 442.274 191.568 440.991C191.705 439.76 191.883 438.49 192.099 437.218C192.304 436.005 192.55 434.749 192.828 433.485C193.344 431.15 193.979 428.74 194.771 426.119C195.433 423.926 196.218 421.548 197.169 418.851C198.154 418.793 199.149 418.703 200.126 418.581C201.103 418.46 202.086 418.305 203.051 418.12C204.015 417.935 204.986 417.716 205.936 417.468C206.887 417.22 207.842 416.937 208.775 416.626C209.889 416.256 211.002 415.836 212.082 415.38C213.155 414.926 214.225 414.424 215.262 413.887C216.292 413.354 217.315 412.773 218.303 412.161C219.286 411.552 220.258 410.896 221.194 410.213C222.125 409.531 223.043 408.805 223.923 408.053C224.799 407.303 225.659 406.51 226.479 405.694C227.298 404.878 228.095 404.022 228.85 403.147C229.606 402.271 230.338 401.355 231.025 400.425C231.715 399.491 232.376 398.519 232.993 397.537C233.612 396.549 234.201 395.526 234.742 394.496C235.286 393.459 235.797 392.388 236.26 391.313C236.726 390.23 237.156 389.116 237.537 388C239.171 394.625 240 401.571 240 408.645C240 410.809 239.921 412.991 239.765 415.132C239.612 417.241 239.38 419.361 239.076 421.431C238.776 423.475 238.399 425.52 237.955 427.511C237.516 429.48 237.001 431.441 236.425 433.34C235.854 435.222 235.209 437.088 234.509 438.886C233.813 440.671 233.046 442.431 232.23 444.117C231.417 445.794 230.536 447.437 229.611 449.001C228.687 450.56 227.699 452.076 226.674 453.506C225.648 454.936 224.561 456.314 223.443 457.601C222.322 458.891 221.143 460.119 219.94 461.253C218.747 462.378 217.495 463.438 216.188 464.431C214.916 465.396 213.588 466.288 212.211 467.102C210.863 467.898 209.467 468.611 208.031 469.236C206.613 469.851 205.157 470.373 203.67 470.799C202.188 471.222 200.679 471.543 199.152 471.76C198.416 471.865 197.665 471.945 196.918 472L196.918 472ZM187.069 471.246C186.488 471.113 185.903 470.963 185.331 470.799C183.844 470.374 182.387 469.852 180.97 469.236C179.533 468.611 178.137 467.899 176.79 467.103C175.413 466.289 174.085 465.397 172.812 464.431C171.505 463.439 170.253 462.378 169.061 461.253C167.857 460.12 166.679 458.891 165.558 457.601C164.44 456.314 163.352 454.936 162.327 453.506C161.301 452.076 160.313 450.561 159.39 449.001C158.465 447.438 157.584 445.795 156.771 444.117C155.954 442.431 155.187 440.671 154.492 438.886C153.791 437.088 153.147 435.223 152.575 433.34C151.999 431.441 151.485 429.48 151.045 427.511C150.601 425.521 150.224 423.475 149.924 421.431C149.62 419.361 149.389 417.242 149.235 415.132C149.079 412.992 149 410.81 149 408.645C149 401.572 149.829 394.626 151.463 388C151.844 389.115 152.273 390.23 152.74 391.313C153.203 392.389 153.714 393.46 154.258 394.496C154.8 395.527 155.388 396.55 156.007 397.537C156.624 398.52 157.286 399.492 157.975 400.425C158.662 401.356 159.394 402.272 160.15 403.148C160.905 404.022 161.702 404.879 162.521 405.695C163.34 406.51 164.2 407.304 165.077 408.053C165.956 408.805 166.875 409.532 167.806 410.213C168.741 410.897 169.714 411.552 170.697 412.162C171.685 412.774 172.708 413.354 173.738 413.888C173.912 413.978 174.088 414.068 174.263 414.155C173.926 415.571 173.636 416.99 173.4 418.374C173.152 419.825 172.956 421.291 172.815 422.729C172.669 424.228 172.579 425.75 172.547 427.253C172.514 428.81 172.542 430.4 172.632 431.976C172.69 433.044 172.78 434.133 172.901 435.212C173.02 436.271 173.171 437.351 173.35 438.422C173.699 440.502 174.168 442.63 174.745 444.748C175.298 446.781 175.966 448.858 176.729 450.921C177.459 452.897 178.296 454.911 179.216 456.909C180.402 459.477 181.642 461.951 182.902 464.263C183.561 465.472 184.24 466.664 184.921 467.807C185.621 468.981 186.343 470.138 187.069 471.245L187.069 471.246Z" fill="white"/>
<defs>
<linearGradient id="paint0_linear_643_260" x1="78" y1="814" x2="453" y2="-131.5" gradientUnits="userSpaceOnUse">
<stop offset="0.0994933" stop-color="#673105"/>
<stop offset="1" stop-color="#984D10"/>
</linearGradient>
</defs>
</svg>
