<svg width="24" height="38" viewBox="0 0 24 38" fill="none" xmlns="http://www.w3.org/2000/svg">
<path d="M21 21L16.514 16.506M19 10.5C19 12.7543 18.1045 14.9163 16.5104 16.5104C14.9163 18.1045 12.7543 19 10.5 19C8.24566 19 6.08365 18.1045 4.48959 16.5104C2.89553 14.9163 2 12.7543 2 10.5C2 8.24566 2.89553 6.08365 4.48959 4.48959C6.08365 2.89553 8.24566 2 10.5 2C12.7543 2 14.9163 2.89553 16.5104 4.48959C18.1045 6.08365 19 8.24566 19 10.5V10.5Z" stroke="#FFFEFE" stroke-width="2" stroke-linecap="round"/>
<path d="M11.2141 32.448V28.504H10.2781V30.232H8.96613V31H10.2781V32.448H11.2141ZM11.2141 35.544V32.816H6.52613V35.544H11.2141ZM10.2781 34.816H7.47013V33.544H10.2781V34.816ZM8.96613 28.928H5.65413V29.704H7.92613C7.67013 30.888 6.63813 31.624 5.34212 31.952L5.83813 32.704C7.80613 32.032 8.88613 30.912 8.96613 28.928ZM18.304 32.688V28.504H17.416V30.216H16.84V28.632H15.968V32.616H16.84V30.968H17.416V32.688H18.304ZM13.352 33.024V33.768H17.376V35.64H18.304V33.024H13.352ZM15.824 31.664C15.088 31.32 14.48 30.624 14.48 29.632V28.952H13.584V29.656C13.584 30.664 13.032 31.448 12.168 31.92L12.688 32.592C13.296 32.312 13.864 31.672 14.064 31.128C14.24 31.584 14.88 32.16 15.352 32.36L15.824 31.664Z" fill="#FFFEFE"/>
</svg>
