<svg width="18" height="18" viewBox="0 0 18 18" fill="none" xmlns="http://www.w3.org/2000/svg">
<path d="M3.2242 16.7061C3.13645 17.2056 3.6292 17.5959 4.06345 17.3732L9.0022 14.8352L13.9398 17.3732C14.3741 17.5959 14.8668 17.2056 14.7791 16.7072L13.8453 11.3859L17.8076 7.61045C18.1788 7.2572 17.9876 6.61145 17.4903 6.5417L11.9801 5.7587L9.52308 0.890822C9.47627 0.792147 9.40243 0.708778 9.31012 0.650401C9.21782 0.592024 9.11085 0.561035 9.00164 0.561035C8.89242 0.561035 8.78545 0.592024 8.69315 0.650401C8.60085 0.708778 8.52701 0.792147 8.4802 0.890822L6.0232 5.75982L0.51295 6.54282C0.0168249 6.61257 -0.17555 7.25832 0.194575 7.61157L4.15795 11.3871L3.2242 16.7083V16.7061ZM8.74232 13.5932L4.59557 15.7239L5.37632 11.2723C5.39462 11.1698 5.38746 11.0645 5.35548 10.9654C5.32351 10.8663 5.2677 10.7766 5.19295 10.7042L1.9237 7.58795L6.4822 6.93995C6.57659 6.92569 6.66612 6.88877 6.74312 6.83234C6.82012 6.77591 6.8823 6.70166 6.92432 6.61595L8.99995 2.5007L11.0778 6.61595C11.1198 6.70166 11.182 6.77591 11.259 6.83234C11.336 6.88877 11.4256 6.92569 11.5199 6.93995L16.0784 7.58682L12.8092 10.7031C12.7343 10.7756 12.6784 10.8655 12.6464 10.9648C12.6144 11.0641 12.6073 11.1697 12.6258 11.2723L13.4066 15.7239L9.25982 13.5932C9.17964 13.5519 9.09073 13.5303 9.00051 13.5303C8.9103 13.5303 8.82139 13.5519 8.7412 13.5932H8.74232Z" fill="#FFFFFF"/>
</svg>
